<svg width="45" height="51" viewBox="0 0 45 51" fill="none" xmlns="http://www.w3.org/2000/svg">
<g clip-path="url(#clip0_812_72951)">
<path d="M36.1207 37.357L22.9494 44.8606C22.6729 45.0157 22.3336 45.0157 22.0571 44.8606L8.78517 37.295C8.50867 37.14 8.16933 37.14 7.89284 37.295L4.39891 39.2856C3.80193 39.6267 3.80193 40.4763 4.39891 40.8174L19.8702 49.6295L22.0633 50.8822C22.3398 51.0372 22.6792 51.0372 22.9557 50.8822L25.1488 49.6295L40.5196 40.8732C41.1166 40.5321 41.1166 39.6825 40.5196 39.3414L37.0256 37.3508C36.7491 37.1958 36.4098 37.1958 36.1333 37.3508L36.1207 37.357Z" fill="#3C3936"/>
<path d="M45.0006 13.1902V34.3554C45.0006 35.0376 44.2528 35.4593 43.6558 35.1182L40.1618 33.1276C39.8853 32.9725 39.7157 32.6811 39.7157 32.3648V16.204C39.7157 15.8878 39.546 15.5963 39.2695 15.4413L34.9335 12.9731L32.112 11.367C31.8355 11.212 31.4962 11.212 31.2134 11.367L29.6486 12.26L25.143 14.8273L22.9499 16.08C22.6734 16.2351 22.334 16.2351 22.0575 16.08L19.8644 14.8273L15.1577 12.1422L13.794 11.367C13.5175 11.212 13.1782 11.212 12.8954 11.367L9.87278 13.091L5.73788 15.4475C5.46138 15.6025 5.29171 15.894 5.29171 16.2103V32.2594C5.29171 32.5756 5.12204 32.8671 4.84555 33.0221L1.35162 35.0128C0.754637 35.3539 0.00683594 34.926 0.00683594 34.25V13.1902C0.00683594 12.8739 0.176505 12.5825 0.453003 12.4274L2.64613 11.1747L6.82502 8.79342L8.05669 8.09267L10.696 6.58574L12.1036 5.77956L13.3353 5.07881L19.8581 1.36419L22.0512 0.111515C22.3277 -0.0435193 22.6671 -0.0435193 22.9436 0.111515L25.1367 1.36419L31.6595 5.07881L32.7907 5.72375L34.2988 6.58574L36.9381 8.09267L38.0693 8.73761L42.3487 11.1747L44.5418 12.4274C44.8183 12.5825 44.988 12.8739 44.988 13.1902H45.0006Z" fill="#3C3936"/>
</g>
<defs>
<clipPath id="clip0_812_72951">
<rect width="45" height="51" fill="white"/>
</clipPath>
</defs>
</svg>
