<svg width="33" height="37" viewBox="0 0 33 37" fill="none" xmlns="http://www.w3.org/2000/svg">
<g clip-path="url(#clip0_2246_53892)">
<path d="M26.4895 27.102L16.8305 32.5458C16.6277 32.6583 16.3789 32.6583 16.1761 32.5458L6.44337 27.057C6.2406 26.9445 5.99176 26.9445 5.78899 27.057L3.22678 28.5012C2.78899 28.7486 2.78899 29.365 3.22678 29.6125L14.5724 36.0056L16.1807 36.9144C16.3835 37.0269 16.6323 37.0269 16.8351 36.9144L18.4434 36.0056L29.7153 29.653C30.153 29.4055 30.153 28.7891 29.7153 28.5417L27.153 27.0975C26.9503 26.985 26.7014 26.985 26.4987 27.0975L26.4895 27.102Z" fill="#3C3936"/>
<path d="M32.9993 9.5689V24.9241C32.9993 25.419 32.4509 25.7249 32.0131 25.4775L29.4509 24.0333C29.2481 23.9208 29.1237 23.7093 29.1237 23.4799V11.7554C29.1237 11.526 28.9993 11.3145 28.7965 11.202L25.6168 9.41143L23.5477 8.24618C23.3449 8.13371 23.0961 8.13371 22.8887 8.24618L21.7412 8.89404L18.4371 10.7566L16.8288 11.6654C16.626 11.7779 16.3772 11.7779 16.1744 11.6654L14.5661 10.7566L11.1145 8.80856L10.1145 8.24618C9.91174 8.13371 9.66289 8.13371 9.45552 8.24618L7.23893 9.49691L4.20667 11.2065C4.00391 11.319 3.87948 11.5305 3.87948 11.7599V23.4034C3.87948 23.6329 3.75506 23.8443 3.55229 23.9568L0.990081 25.401C0.552293 25.6484 0.00390625 25.338 0.00390625 24.8476V9.5689C0.00390625 9.33945 0.12833 9.12799 0.331095 9.01552L1.93939 8.10672L5.00391 6.37909L5.90713 5.8707L7.84262 4.77743L8.87488 4.19256L9.7781 3.68417L14.5615 0.989254L16.1698 0.0804505C16.3726 -0.0320252 16.6214 -0.0320252 16.8242 0.0804505L18.4325 0.989254L23.2159 3.68417L24.0454 4.15207L25.1514 4.77743L27.0869 5.8707L27.9164 6.3386L31.0546 8.10672L32.6629 9.01552C32.8657 9.12799 32.9901 9.33945 32.9901 9.5689H32.9993Z" fill="#3C3936"/>
</g>
<defs>
<clipPath id="clip0_2246_53892">
<rect width="33" height="37" fill="white"/>
</clipPath>
</defs>
</svg>
